<?xml version="1.0" encoding="UTF-8"?>
<svg width="128pt" height="128pt" version="1.1" viewBox="0 0 128 128" xmlns="http://www.w3.org/2000/svg">
 <g>
  <path d="m75.777 70.785v-1.1523l-5.7617-5.7617 1.0234-1.0234-4.2227-4.2227 1.1523-1.1523-8.7031-8.832c-1.4062-1.4062-3.9688-1.4062-5.375 0l-6.1445 6.1445c-1.5352 1.5352-1.5352 3.9688 0 5.375l8.832 8.832 1.1523-1.1523 4.2227 4.2227 1.0234-1.0234 9.6016 9.6016 6.2734-0.89453 0.89453-6.2734-2.5586-2.5586zm-26.242-12.418c-0.51172-0.51172-0.51172-1.2812 0-1.793l6.1445-6.1445c0.25781-0.25781 0.51172-0.38281 0.89453-0.38281 0.38281 0 0.64062 0.12891 0.89453 0.38281l7.0391 7.0391-7.9375 7.9375zm15.488 2.1758 2.4336 2.4336-5.5039 5.5039-2.4336-2.4336zm11.391 16.898-3.0703 0.38281-8.7031-8.7031 3.582-3.582 4.9922 4.9922-0.12891 2.6875 2.8164 0.12891 1.0234 1.0234z"/>
  <path d="m88.062 24.961 0.38281-0.38281 0.003907-13.57h-13.566l-6.9141 6.9141v0.25781c-2.6875-0.25781-5.375-0.25781-8.0625 0l-0.003906-7.1719h-13.566l-6.9102 6.9141v7.168c-5.5039 3.5859-10.367 8.3203-13.953 13.824h-5.1211l-6.9102 6.9102v13.566h4.8633c-0.12891 1.5352-0.25781 3.0703-0.25781 4.6094 0 2.4336 0.25781 4.8633 0.51172 7.168l-5.1211 5.1211v13.566h12.543c3.7109 5.5039 8.5742 10.113 14.336 13.566l-0.89453 0.89453 0.003906 13.445h13.566l6.9102-6.9102v-1.0234c1.4062 0.12891 2.6875 0.25781 4.0977 0.25781 1.2812 0 2.6875-0.12891 3.9688-0.12891v7.8047h13.566l6.9102-6.9102v-7.9375c5.2461-3.3281 9.9844-7.8086 13.566-13.055l5.5078-0.003906 6.9102-6.9102 0.003906-13.57h-4.8633c0.25781-1.793 0.38281-3.5859 0.38281-5.375 0-2.1758-0.12891-4.3516-0.51172-6.5273l4.9922-4.9922v-13.57h-11.902c-3.7148-5.6289-8.707-10.496-14.469-13.949zm8.4492 22.781h9.2148v9.2148h-9.2148zm9.8555-2.5586h-8.0625l3.5859-3.5859h8.0625zm-35.84-25.344h9.2148v9.2148h-9.2148zm11.777-0.76953 3.5859-3.5859v8.0625l-3.5859 3.5859zm-6.2734-5.5039h8.0625l-3.5859 3.5859h-8.0625zm-34.047 6.2734h9.2148v9.2148h-9.2148zm11.777-0.76953 3.5859-3.5859v8.0625l-3.5859 3.5898zm-6.2734-5.5039h8.0625l-3.5859 3.5859h-8.0625zm-25.984 27.906h8.0625l-3.5859 3.5859-8.0586-0.003906zm6.2734 5.5039 3.5859-3.5859v8.0625l-3.5859 3.5859zm-11.777 0.76563h9.2148v9.2148h-9.2148zm11.777 29.699 3.5859-3.5859v8.0625l-3.5859 3.5859zm-1.793-1.793h-8.0625l3.5859-3.5859h8.0625zm-9.9844 2.5586h9.2148v9.2148h-9.2148zm35.969 25.219h-8.0625l3.5859-3.5859h8.0625zm-9.9844 2.5586h9.2148v9.2148h-9.2148zm11.777 7.4219v-8.0625l3.5859-3.5859v8.0625zm26.75-9.9805h-8.0625l3.5859-3.5859h8.0625zm-9.9844 2.5586h9.2148v9.2148h-9.2148zm11.777 7.4219v-8.0625l3.5859-3.5859v8.0625zm24.062-37.758h-8.0625l3.5859-3.5859h8.0625zm-9.8555 2.5586h9.2148v9.2148h-9.2148zm11.777 7.2969v-8.0625l3.5859-3.5859v8.0625zm-7.4258-16.129-6.9102 6.9102v13.566h4.8633c-2.8164 3.8398-6.3984 7.2969-10.367 9.9844v-2.5586h-13.566l-6.9102 6.9102v2.9453c-2.6875 0.25781-5.375 0.25781-8.0625 0l-0.007812-9.8516h-13.566l-4.0977 4.2227c-5.5039-3.1992-10.238-7.6797-13.953-12.93l5.7617-5.7617v-13.438h-13.055c-0.25781-1.793-0.38281-3.5859-0.38281-5.375 0-1.5352 0.12891-3.0703 0.25781-4.6094h6.1445l6.9102-6.9102v-13.57h-5.375c2.9453-4.2227 6.6562-7.8086 10.879-10.754v3.3281h13.566l6.9102-6.9102v-3.7109c2.6875-0.25781 5.375-0.25781 8.0625 0v10.754h13.566l4.7344-4.7344c5.5039 3.3281 10.238 7.8086 13.695 13.055l-6.0156 6.0156v13.566h13.184c0.12891 1.5352 0.25781 3.0703 0.25781 4.6094 0 1.793-0.12891 3.5859-0.38281 5.375zm7.4258-14.336v-8.0625l3.5859-3.5859v8.0625z"/>
  <path d="m64 35.84c-15.488 0-28.16 12.672-28.16 28.16s12.672 28.16 28.16 28.16 28.16-12.672 28.16-28.16-12.672-28.16-28.16-28.16zm0 53.762c-14.078 0-25.602-11.52-25.602-25.602 0-14.078 11.52-25.602 25.602-25.602 14.078 0 25.602 11.52 25.602 25.602 0 14.078-11.523 25.602-25.602 25.602z"/>
 </g>
</svg>
